<svg width="20" height="24" viewBox="0 0 20 24" fill="none" xmlns="http://www.w3.org/2000/svg">
<path d="M19.3794 18.8976C19.0316 19.7012 18.6199 20.4408 18.1429 21.1209C17.4926 22.0479 16.9602 22.6896 16.55 23.046C15.9139 23.6309 15.2325 23.9305 14.5027 23.9475C13.9789 23.9475 13.3471 23.7984 12.6117 23.496C11.8739 23.1951 11.1958 23.046 10.5758 23.046C9.92559 23.046 9.22822 23.1951 8.48231 23.496C7.73526 23.7984 7.13344 23.956 6.67331 23.9716C5.97354 24.0015 5.27604 23.6934 4.57981 23.046C4.13544 22.6584 3.57962 21.994 2.91378 21.0527C2.19938 20.0476 1.61205 18.882 1.15192 17.5531C0.659139 16.1178 0.412109 14.7279 0.412109 13.3823C0.412109 11.8409 0.745173 10.5115 1.41229 9.39748C1.93659 8.50264 2.6341 7.79676 3.50708 7.27856C4.38006 6.76037 5.32331 6.4963 6.33911 6.47941C6.89493 6.47941 7.62381 6.65134 8.52958 6.98923C9.4328 7.32825 10.0128 7.50018 10.267 7.50018C10.4571 7.50018 11.1014 7.29915 12.1936 6.89837C13.2264 6.52669 14.0981 6.37279 14.8122 6.43341C16.7473 6.58958 18.2011 7.35239 19.1679 8.72667C17.4373 9.77526 16.5812 11.244 16.5982 13.128C16.6138 14.5956 17.1462 15.8168 18.1926 16.7865C18.6667 17.2365 19.1963 17.5844 19.7855 17.8314C19.6577 18.2019 19.5228 18.5569 19.3794 18.8976ZM14.9414 1.43376C14.9414 2.58403 14.5212 3.65802 13.6836 4.6521C12.6727 5.83387 11.4501 6.51675 10.1242 6.40899C10.1073 6.271 10.0975 6.12576 10.0975 5.97314C10.0975 4.86889 10.5782 3.68713 11.4319 2.72087C11.8581 2.23164 12.4001 1.82485 13.0575 1.50035C13.7134 1.18069 14.3338 1.00391 14.9173 0.973633C14.9343 1.1274 14.9414 1.28119 14.9414 1.43375V1.43376Z" fill="black"/>
</svg>
