<svg width="24" height="24" viewBox="0 0 24 24" fill="none" xmlns="http://www.w3.org/2000/svg">
<path fill-rule="evenodd" clip-rule="evenodd" d="M22.663 12.735C22.663 11.9195 22.5899 11.1355 22.454 10.3827H11.623V14.8311H17.8121C17.5455 16.2686 16.7353 17.4866 15.5174 18.302V21.1875H19.234C21.4085 19.1855 22.663 16.2373 22.663 12.735Z" fill="#4285F4"/>
<path fill-rule="evenodd" clip-rule="evenodd" d="M11.623 23.9735C14.728 23.9735 17.3311 22.9437 19.2339 21.1873L15.5173 18.3019C14.4875 18.9919 13.1702 19.3996 11.623 19.3996C8.62774 19.3996 6.09251 17.3767 5.18819 14.6585H1.34615V17.638C3.23842 21.3964 7.12751 23.9735 11.623 23.9735Z" fill="#34A853"/>
<path fill-rule="evenodd" clip-rule="evenodd" d="M5.18827 14.6587C4.95827 13.9687 4.82759 13.2316 4.82759 12.4737C4.82759 11.7157 4.95827 10.9787 5.18827 10.2887V7.30915H1.34623C0.567365 8.86165 0.123047 10.618 0.123047 12.4737C0.123047 14.3294 0.567365 16.0857 1.34623 17.6382L5.18827 14.6587Z" fill="#FBBC05"/>
<path fill-rule="evenodd" clip-rule="evenodd" d="M11.623 5.5475C13.3114 5.5475 14.8273 6.12772 16.0191 7.26727L19.3175 3.96886C17.3259 2.11318 14.7227 0.973633 11.623 0.973633C7.12751 0.973633 3.23842 3.55068 1.34615 7.30909L5.18819 10.2886C6.09251 7.57045 8.62774 5.5475 11.623 5.5475Z" fill="#EA4335"/>
</svg>
