<svg width="151" height="146" viewBox="0 0 151 146" fill="none" xmlns="http://www.w3.org/2000/svg">
<path d="M150.17 134.319H137.656V134.414H150.17V134.319Z" fill="#EBEBEB"/>
<path d="M83.4126 133.137H78.5422V133.231H83.4126V133.137Z" fill="#EBEBEB"/>
<path d="M112.299 133.537H102.044V133.632H112.299V133.537Z" fill="#EBEBEB"/>
<path d="M137.278 130.813H116.077V130.907H137.278V130.813Z" fill="#EBEBEB"/>
<path d="M10.0242 135.185H0V135.279H10.0242V135.185Z" fill="#EBEBEB"/>
<path d="M22.0775 135.185H13.3871V135.279H22.0775V135.185Z" fill="#EBEBEB"/>
<path d="M52.6521 133.091H29.6755V133.186H52.6521V133.091Z" fill="#EBEBEB"/>
<path d="M74.639 145.303C115.099 145.303 147.899 143.388 147.899 141.026C147.899 138.664 115.099 136.749 74.639 136.749C34.1787 136.749 1.37915 138.664 1.37915 141.026C1.37915 143.388 34.1787 145.303 74.639 145.303Z" fill="#F5F5F5"/>
<path d="M61.6939 35.1092C61.8111 34.9807 63.0126 33.7527 62.5667 33.0084C62.1889 33.7905 61.4634 34.9769 59.2417 35.1734C59.4893 34.4992 59.6171 33.787 59.6196 33.0688C59.2583 33.8876 58.7126 34.6118 58.0251 35.1847C56.6476 35.082 55.2875 34.813 53.9746 34.3837C48.375 34.8976 48.239 30.4881 48.1936 29.5058C48.0485 30.163 47.9838 30.8355 48.0009 31.5083C46.7918 29.5889 46.9845 26.6757 48.579 26.1316C48.87 19.935 53.3474 19.3833 54.4734 19.1378C56.5062 18.6919 60.0541 16.9878 61.8111 20.6491C64.2784 21.9754 65.2116 25.0926 64.1575 29.8458C66.2734 33.2502 61.9169 35.0223 61.6939 35.1092Z" fill="#263238"/>
<path d="M53.6269 141.022C56.5514 141.022 56.9368 140.977 58.5804 140.92C59.986 140.871 60.3223 141.045 61.4558 141.022C62.4004 141 62.3626 140.097 62.0717 139.058C61.9281 138.536 61.6939 137.429 61.5012 136.586L57.0577 137.051C56.7077 137.676 56.2106 138.207 55.6095 138.596C55.0085 138.986 54.3215 139.223 53.608 139.288C52.0324 139.5 52.4632 141.022 53.6269 141.022Z" fill="#263238"/>
<path d="M51.2316 130.439C52.9621 128.145 53.4004 127.265 54.3337 125.943C55.1309 124.809 55.2858 125.092 56.136 123.974C56.6952 123.218 56.1775 122.183 55.3803 121.953C54.6326 121.802 53.9003 121.583 53.1926 121.299L50.2756 123.449C50.8084 124.828 50.8688 127.983 49.6711 129.816C48.8058 131.13 50.5326 131.357 51.2316 130.439Z" fill="#263238"/>
<path d="M40.2211 60.3301C40.2211 60.3301 31.8179 84.3533 30.7297 93.1457C29.668 101.745 50.4946 124.106 50.4946 124.106C50.9972 124.484 53.0828 121.892 53.2 121.212C53.2 121.212 44.9328 103 39.1745 93.4216C51.6433 74.9488 53.8083 62.4838 53.8083 62.4838L40.2211 60.3301Z" fill="#1C1C1C"/>
<path d="M44.2943 60.9763C44.2943 60.9763 48.9909 85.1583 50.7819 96.8109C52.6711 109.038 57.5301 129.056 57.0578 137.051C57.7417 137.452 60.2582 136.775 61.5919 136.352C61.5919 136.352 65.0492 110.126 59.0868 98.02C62.9446 69.7272 55.7958 62.8013 55.7958 62.8013L44.2943 60.9763Z" fill="#1C1C1C"/>
<path d="M56.7214 133.556C56.7214 134.274 56.6723 135.525 56.5665 136.48C56.5287 136.824 56.661 137.146 56.8537 137.202C58.4784 137.663 60.8324 136.991 61.5805 136.753C61.7241 136.707 61.8299 136.507 61.8525 136.25L62.0944 133.514C62.1284 133.137 61.9659 132.8 61.7505 132.808L57.0577 132.97C56.8801 132.978 56.729 133.231 56.7214 133.556Z" fill="#263238"/>
<path d="M47.9291 121.537C48.3825 122.153 49.1835 123.249 49.7616 124.076C49.9543 124.348 50.2377 124.492 50.4115 124.412C51.7151 123.808 53.268 122.145 53.7705 121.609C53.8688 121.499 53.8461 121.276 53.7139 121.057L52.2856 118.696C52.0929 118.374 51.7453 118.186 51.5677 118.318L47.8535 120.887C47.7024 120.985 47.7326 121.288 47.9291 121.537Z" fill="#263238"/>
<path d="M45.5639 42.3637C45.4316 42.171 45.356 42.0501 45.2616 41.899L45.0009 41.4682C44.8346 41.1848 44.6797 40.8977 44.5286 40.6105C44.2263 40.0362 43.9442 39.4556 43.6822 38.8687C43.1584 37.6893 42.7177 36.4747 42.3635 35.2338C42.0019 33.9873 41.7341 32.7155 41.5625 31.4289C41.468 30.7828 41.4151 30.1329 41.3774 29.4793C41.3774 29.1505 41.3471 28.8256 41.3509 28.4969V28.0057C41.3509 27.7941 41.3509 27.5636 41.3849 27.3709C41.4584 26.6596 41.5963 25.9565 41.7968 25.2701C41.9744 24.6278 42.1746 24.0232 42.3938 23.43C42.8283 22.2436 43.3195 21.1138 43.8333 20.003C44.8681 17.7957 46.0314 15.6509 47.317 13.5797C47.4731 13.3332 47.7142 13.1526 47.9946 13.0722C48.275 12.9918 48.5752 13.0172 48.8381 13.1435C49.101 13.2699 49.3084 13.4884 49.4209 13.7575C49.5333 14.0267 49.543 14.3278 49.4481 14.6036V14.6263C48.6584 16.8404 47.88 19.0848 47.1621 21.2952C46.807 22.4061 46.4707 23.5131 46.1949 24.6013C46.0551 25.1416 45.9266 25.682 45.817 26.2034C45.7265 26.6721 45.6722 27.147 45.6545 27.6241C45.6545 27.7261 45.6545 27.7941 45.6545 27.881L45.6885 28.2853C45.7074 28.5498 45.7452 28.818 45.7717 29.0863C45.851 29.6191 45.9266 30.1518 46.0362 30.6808C46.2492 31.7462 46.5281 32.7974 46.8712 33.8282C47.2156 34.8666 47.6154 35.8857 48.069 36.8812C48.2919 37.3837 48.5299 37.8749 48.7793 38.3548L49.1571 39.0614L49.3498 39.4052L49.5236 39.6961L49.5879 39.8019C49.8906 40.337 49.9756 40.9681 49.8254 41.5642C49.6751 42.1603 49.3011 42.6757 48.7809 43.0033C48.2608 43.331 47.6344 43.4458 47.0319 43.3239C46.4293 43.202 45.8968 42.8527 45.545 42.3486L45.5639 42.3637Z" fill="#B55B52"/>
<path d="M51.549 12.5331C51.4965 13.0867 51.2424 13.6017 50.8349 13.9802L48.9646 15.5936C48.8371 15.7062 48.678 15.7767 48.509 15.7956C48.3399 15.8146 48.1692 15.781 48.02 15.6994L46.996 15.1704C46.9425 13.7077 47.2693 12.2561 47.9444 10.9575L48.4054 9.17781C48.4135 9.11173 48.4372 9.04851 48.4744 8.99328C48.5116 8.93806 48.5613 8.89239 48.6194 8.85999C48.6776 8.82759 48.7426 8.80938 48.8091 8.80683C48.8757 8.80428 48.9419 8.81746 49.0024 8.84531L51.447 10.1186C51.564 10.1919 51.6568 10.2979 51.714 10.4236C51.7711 10.5492 51.7899 10.6889 51.7682 10.8252L51.549 12.5331Z" fill="#B55B52"/>
<path d="M46.8712 45.2957C53.0603 43.1987 50.1093 38.6797 48.4355 34.4214C46.8107 33.1896 42.0121 38.2565 42.0121 38.2565C42.0121 38.2565 40.7917 44.8272 46.8712 45.2957Z" fill="#263238"/>
<path d="M42.2425 41.8385C41.7786 44.2024 41.4356 46.5884 41.2148 48.9873C40.8369 52.1045 40.5762 55.1839 40.2211 60.3226L55.8108 62.7937C56.1887 58.3502 57.496 53.4269 61.8563 43.9884C62.1027 43.4978 62.2364 42.9584 62.2475 42.4095C62.2586 41.8606 62.1469 41.3161 61.9205 40.816C61.6942 40.3158 61.3589 39.8726 60.9392 39.5187C60.5195 39.1647 60.026 38.9091 59.4948 38.7704C58.8865 38.6117 58.2404 38.4568 57.5716 38.317C55.2425 37.7717 52.8775 37.3929 50.4946 37.1835C49.7125 37.1344 48.9001 37.1041 48.1218 37.089C46.743 37.0758 45.4025 37.5424 44.33 38.4089C43.2574 39.2753 42.5195 40.4878 42.2425 41.8385Z" fill="#263238"/>
<path d="M58.3424 30.2766C57.3638 32.4568 55.9469 36.5072 57.1862 38.2642C57.1862 38.2642 55.0816 37.5954 50.0525 39.7038C49.0248 37.5917 50.1092 37.142 50.1092 37.142C52.7881 36.9455 53.1622 35.0714 53.1319 33.254L58.3424 30.2766Z" fill="#B55B52"/>
<path d="M51.103 39.2958C52.5804 39.7492 52.69 42.1031 52.69 42.1031C52.69 42.1031 56.7215 40.1119 58.1536 38.4872C57.739 38.1578 57.3417 37.8072 56.9634 37.4368C56.9634 37.4368 52.1232 38.5401 51.103 39.2958Z" fill="white"/>
<path d="M49.7011 38.8159C49.7011 38.8159 48.3409 38.9633 47.5814 40.7051C47.7628 37.3272 49.4026 37.0098 49.4026 37.0098C49.8513 36.8369 50.3482 36.8369 50.7969 37.0098C50.4302 37.1328 50.119 37.3817 49.9184 37.7123C49.7178 38.0429 49.6408 38.4339 49.7011 38.8159Z" fill="white"/>
<path opacity="0.2" d="M56.2152 31.4895L53.132 33.2503C53.1463 33.6772 53.1223 34.1047 53.0602 34.5274C54.0615 34.5274 55.6446 33.6999 55.9847 32.7137C56.1355 32.3231 56.2136 31.9082 56.2152 31.4895Z" fill="black"/>
<path d="M61.01 26.0107C59.7367 29.5813 59.272 31.1115 56.8953 32.5436C53.3172 34.6973 49.2025 32.6078 49.3838 28.7916C49.5425 25.3608 51.598 20.1012 55.5805 19.4853C59.5251 18.8921 62.2834 22.4438 61.01 26.0107Z" fill="#B55B52"/>
<path d="M60.0199 21.0043C58.093 22.1605 58.1572 28.3798 61.3613 27.9263C64.3311 24.3293 62.0867 19.9047 60.0199 21.0043Z" fill="#263238"/>
<path d="M61.8148 20.6151C59.5893 24.1101 51.1785 21.0836 49.1948 19.4173C50.6231 19.8443 53.0299 19.4702 54.768 19.0395C56.5061 18.6087 61.3236 16.3417 61.8148 20.6151Z" fill="#263238"/>
<path d="M50.6232 18.7335C53.0204 19.3405 55.5387 19.2738 57.9004 18.5408L60.4433 18.333C58.5881 17.1088 53.5552 18.6844 50.6232 18.7335Z" fill="#263238"/>
<path d="M56.2152 25.8822C56.1207 26.1845 55.8864 26.3923 55.69 26.3469C55.4935 26.3016 55.4066 26.0182 55.501 25.7122C55.5955 25.4061 55.8335 25.1983 56.03 25.2474C56.2265 25.2965 56.3096 25.5761 56.2152 25.8822Z" fill="#263238"/>
<path d="M52.4103 24.8621C52.3159 25.1681 52.0778 25.376 51.8814 25.3306C51.6849 25.2853 51.6018 24.9981 51.6962 24.6958C51.7907 24.3936 52.0249 24.182 52.2214 24.2273C52.4179 24.2727 52.501 24.5598 52.4103 24.8621Z" fill="#263238"/>
<path d="M52.3044 24.265L51.647 23.8872C51.647 23.8872 51.8397 24.5598 52.3044 24.265Z" fill="#263238"/>
<path d="M53.3739 25.8066C52.8887 26.4373 52.3264 27.0047 51.7001 27.4956C51.9683 27.9603 52.724 27.9603 52.724 27.9603L53.3739 25.8066Z" fill="#A02724"/>
<path d="M54.0955 29.4717C53.9211 29.4632 53.7479 29.4392 53.5778 29.3999C53.5661 29.3969 53.5551 29.3915 53.5456 29.3841C53.5361 29.3766 53.5282 29.3672 53.5226 29.3566C53.5169 29.3459 53.5135 29.3342 53.5126 29.3221C53.5117 29.31 53.5133 29.2979 53.5174 29.2865C53.5244 29.2631 53.5399 29.2432 53.5609 29.2306C53.5818 29.218 53.6067 29.2137 53.6307 29.2185C54.016 29.3106 54.417 29.3149 54.8041 29.2312C55.1913 29.1474 55.5547 28.9779 55.8675 28.7349C55.8852 28.7176 55.9089 28.7079 55.9337 28.7079C55.9584 28.7079 55.9821 28.7176 55.9998 28.7349C56.0082 28.7433 56.0149 28.7533 56.0195 28.7643C56.0241 28.7754 56.0265 28.7872 56.0265 28.7991C56.0265 28.8111 56.0241 28.8229 56.0195 28.8339C56.0149 28.8449 56.0082 28.8549 55.9998 28.8634C55.4615 29.2936 54.7835 29.5102 54.0955 29.4717Z" fill="#263238"/>
<path d="M61.2783 29.4717C61.0283 29.7822 60.7193 30.0403 60.3691 30.2309C60.019 30.4216 59.6345 30.5411 59.238 30.5825C58.2103 30.6694 57.9533 29.6304 58.4483 28.6933C58.8979 27.8545 59.9597 26.8041 60.8967 27.1442C61.8338 27.4842 61.9207 28.6669 61.2783 29.4717Z" fill="#B55B52"/>
<path d="M57.6736 23.6492C57.6497 23.6461 57.6268 23.6377 57.6065 23.6246C57.5863 23.6116 57.5692 23.5942 57.5565 23.5737C57.4371 23.3796 57.2706 23.2189 57.0724 23.1066C56.8742 22.9942 56.6508 22.934 56.4229 22.9313C56.3993 22.9318 56.3758 22.9276 56.3538 22.9189C56.3318 22.9102 56.3118 22.8972 56.2949 22.8807C56.278 22.8641 56.2646 22.8444 56.2554 22.8226C56.2463 22.8008 56.2416 22.7774 56.2416 22.7537C56.2444 22.7039 56.2657 22.6569 56.3013 22.6219C56.337 22.587 56.3844 22.5666 56.4343 22.5648C56.7197 22.5665 57.0001 22.6405 57.2492 22.7799C57.4983 22.9193 57.708 23.1196 57.8587 23.3621C57.8829 23.405 57.8897 23.4555 57.8778 23.5033C57.8658 23.5511 57.836 23.5925 57.7945 23.619C57.7586 23.6419 57.7161 23.6525 57.6736 23.6492Z" fill="#263238"/>
<path d="M51.6433 22.8595C51.6206 22.8596 51.5981 22.855 51.5773 22.8458C51.5564 22.8367 51.5378 22.8234 51.5224 22.8066C51.488 22.7719 51.4688 22.725 51.4688 22.6762C51.4688 22.6274 51.488 22.5805 51.5224 22.5459C51.7335 22.3339 51.9905 22.1732 52.2735 22.0763C52.5565 21.9793 52.858 21.9487 53.1547 21.9866C53.1778 21.9914 53.1996 22.0009 53.2189 22.0146C53.2381 22.0283 53.2542 22.0458 53.2663 22.0661C53.2784 22.0863 53.2861 22.1089 53.289 22.1323C53.2919 22.1557 53.2899 22.1794 53.2832 22.202C53.2698 22.2498 53.2393 22.2909 53.1974 22.3174C53.1555 22.3439 53.1053 22.354 53.0565 22.3456C52.8211 22.3187 52.5826 22.3459 52.3594 22.4252C52.1361 22.5044 51.9338 22.6336 51.768 22.8028C51.7341 22.8352 51.6901 22.8552 51.6433 22.8595Z" fill="#263238"/>
<path d="M56.1245 25.2852L55.467 24.9073C55.467 24.9073 55.6484 25.561 56.1245 25.2852Z" fill="#263238"/>
<path d="M51.6319 62.0002L52.4102 61.1198C52.5551 60.956 52.7369 60.829 52.9406 60.7495C53.1443 60.67 53.364 60.6402 53.5816 60.6626L55.6408 60.8818C56.0462 60.9231 56.4356 61.0615 56.7763 61.2851C57.117 61.5087 57.3988 61.811 57.598 62.1664L57.8512 62.6123C56.6572 64.1652 54.2239 64.9625 54.2239 64.9625L53.5551 65.2685C53.4206 65.3326 53.2749 65.3696 53.1261 65.3773C52.9774 65.385 52.8286 65.3633 52.6882 65.3135C52.5479 65.2637 52.4187 65.1867 52.3081 65.0869C52.1975 64.9871 52.1077 64.8665 52.0437 64.732L51.4203 63.4171C51.3157 63.1856 51.2801 62.9288 51.3176 62.6775C51.3551 62.4262 51.4642 62.1911 51.6319 62.0002Z" fill="#B55B52"/>
<path d="M63.3036 43.6597C63.4321 43.962 63.5303 44.2076 63.6361 44.4759C63.7419 44.7441 63.8288 45.0049 63.9233 45.2693C64.1084 45.7983 64.3011 46.3273 64.4485 46.8601C64.7696 47.9256 65.0492 49.01 65.2759 50.1095C65.5093 51.2201 65.6808 52.3427 65.7898 53.4723C65.9011 54.6326 65.9288 55.7993 65.8729 56.9636V57.0845C65.867 57.1969 65.8493 57.3083 65.82 57.417C65.6251 58.1149 65.2765 58.7604 64.7999 59.3062C64.4261 59.7394 64.0054 60.1297 63.5454 60.47C62.7525 61.0468 61.8969 61.5323 60.995 61.9171C60.1598 62.2817 59.3015 62.5909 58.4257 62.8428C57.5576 63.0978 56.6742 63.2972 55.7808 63.4398C55.501 63.4868 55.2136 63.4326 54.9702 63.2869C54.7267 63.1413 54.5431 62.9137 54.4522 62.645C54.3612 62.3763 54.3689 62.084 54.4739 61.8204C54.5789 61.5569 54.7743 61.3393 55.0251 61.2068L55.078 61.1765C55.777 60.7987 56.5251 60.4208 57.2241 60.0128C57.9231 59.6047 58.6146 59.1966 59.2531 58.7583C59.8581 58.3595 60.4248 57.9054 60.9459 57.4019C61.1475 57.2072 61.3251 56.989 61.4748 56.752C61.5882 56.5593 61.6184 56.4233 61.5958 56.4081L61.5391 56.8616C61.4921 55.9111 61.3937 54.9638 61.2444 54.024C61.0781 53.0642 60.8665 52.1045 60.6398 51.141C60.4131 50.1775 60.1222 49.2178 59.8237 48.2619C59.6763 47.7858 59.5214 47.3097 59.3551 46.8374L59.1058 46.1384L58.8677 45.4772L58.8337 45.3865C58.6047 44.7937 58.6206 44.1343 58.8778 43.5533C59.135 42.9722 59.6126 42.5171 60.2053 42.2882C60.798 42.0592 61.4575 42.075 62.0385 42.3323C62.6196 42.5895 63.0746 43.067 63.3036 43.6597Z" fill="#B55B52"/>
<path d="M59.2151 38.7063C61.7768 39.1522 62.8008 40.5955 64.8034 45.7909C63.8134 47.699 59.3171 49.4559 59.3171 49.4559C59.3171 49.4559 57.0236 42.1031 59.2151 38.7063Z" fill="#263238"/>
<path d="M115.782 134.323L119.391 133.333L117.418 124.869L113.81 125.859L115.782 134.323Z" fill="#FF8B7B"/>
<path d="M118.896 131.829L114.936 132.846C114.865 132.863 114.802 132.906 114.759 132.965C114.716 133.025 114.696 133.097 114.702 133.171L114.974 136.541C114.981 136.624 115.006 136.705 115.048 136.778C115.09 136.85 115.147 136.913 115.215 136.961C115.283 137.009 115.361 137.042 115.444 137.057C115.526 137.072 115.611 137.068 115.692 137.047C117.112 136.669 119.153 136.042 120.947 135.581C123.048 135.041 122.859 135.177 125.319 134.546C126.808 134.168 126.759 132.57 126.094 132.596C123.071 132.71 122.769 132.751 119.856 131.886C119.547 131.781 119.215 131.761 118.896 131.829Z" fill="#263238"/>
<path opacity="0.2" d="M117.418 124.869L118.435 129.233L114.826 130.223L113.81 125.859L117.418 124.869Z" fill="black"/>
<path d="M119.602 131.999C119.586 131.999 119.57 131.993 119.558 131.982C119.545 131.972 119.535 131.958 119.531 131.943C119.524 131.926 119.523 131.907 119.528 131.889C119.533 131.872 119.543 131.856 119.557 131.845C119.704 131.716 121.012 130.59 121.503 130.711C121.549 130.723 121.591 130.748 121.625 130.783C121.658 130.818 121.681 130.861 121.692 130.907C121.717 130.985 121.723 131.068 121.711 131.148C121.698 131.229 121.667 131.306 121.62 131.372C121.291 131.829 120.222 131.954 119.614 131.984L119.602 131.999ZM121.416 130.892C121.125 130.87 120.396 131.376 119.875 131.803C120.706 131.731 121.295 131.542 121.477 131.285C121.508 131.242 121.529 131.191 121.537 131.138C121.546 131.085 121.542 131.031 121.526 130.979C121.522 130.96 121.512 130.943 121.499 130.929C121.486 130.915 121.469 130.905 121.45 130.9L121.416 130.892Z" fill="#1C1C1C"/>
<path d="M119.603 131.999C119.589 131.992 119.578 131.982 119.57 131.969C119.561 131.957 119.556 131.943 119.553 131.928C119.553 131.886 119.444 130.87 119.825 130.367C119.933 130.222 120.093 130.126 120.271 130.099C120.513 130.061 120.608 130.163 120.649 130.258C120.8 130.635 120.097 131.674 119.697 131.984C119.686 131.999 119.671 132.008 119.653 132.011C119.635 132.014 119.617 132.01 119.603 131.999ZM120.358 130.265H120.268C120.135 130.287 120.017 130.36 119.939 130.469C119.735 130.854 119.65 131.29 119.693 131.724C120.071 131.346 120.547 130.56 120.449 130.322C120.46 130.31 120.449 130.273 120.358 130.265Z" fill="#1C1C1C"/>
<path d="M103.465 91.8574C95.3108 73.9665 89.4656 66.6553 89.3334 57.0127L102.324 54.6361C102.324 54.6361 112.427 79.1619 113.493 90.3838C114.6 102.052 118.983 126.521 118.983 126.521L113.058 127.654C113.058 127.654 103.756 105.071 103.465 91.8574Z" fill="#263238"/>
<path opacity="0.2" d="M90.5613 64.3618C92.0538 69.1642 94.8233 74.2424 98.4166 81.3647C97.7818 73.0106 95.0878 63.2698 90.5613 64.3618Z" fill="black"/>
<path d="M119.508 124.786L119.652 127.412L113.243 129.139L112.393 126.834L119.508 124.786Z" fill="#263238"/>
<path d="M84.4781 129.203L84.1833 137.894L88.3396 137.833L88.6343 129.143L84.4781 129.203Z" fill="#FF8B7B"/>
<path d="M88.2415 136.7L84.157 136.764C84.0855 136.765 84.0166 136.791 83.9637 136.84C83.9107 136.888 83.8773 136.954 83.8699 137.025L83.5147 140.369C83.5079 140.453 83.5187 140.538 83.5464 140.617C83.5741 140.697 83.6182 140.77 83.6758 140.832C83.7334 140.894 83.8032 140.943 83.8809 140.977C83.9585 141.01 84.0423 141.027 84.1268 141.026C85.6004 140.977 86.0613 140.856 87.9052 140.83C90.0702 140.796 89.0728 140.883 91.6119 140.83C93.1459 140.803 93.3915 139.25 92.7454 139.11C90.6635 138.676 90.1005 137.848 89.1823 136.964C88.9133 136.761 88.5772 136.666 88.2415 136.7Z" fill="#263238"/>
<path opacity="0.2" d="M84.478 129.203L84.3231 133.685L88.4832 133.624L88.6343 129.147L84.478 129.203Z" fill="black"/>
<path d="M87.4858 136.983C87.4696 136.984 87.4534 136.98 87.4393 136.972C87.4252 136.964 87.4138 136.952 87.4064 136.938C87.3957 136.923 87.3899 136.905 87.3899 136.887C87.3899 136.868 87.3957 136.851 87.4064 136.836C87.5349 136.692 88.6646 135.442 89.1823 135.517C89.2307 135.523 89.2768 135.541 89.3159 135.571C89.355 135.6 89.3858 135.639 89.4052 135.683C89.4426 135.754 89.4622 135.834 89.4622 135.914C89.4622 135.994 89.4426 136.073 89.4052 136.144C89.1521 136.632 88.0941 136.881 87.4896 136.983H87.4858ZM89.1332 135.691C88.8347 135.691 88.1848 136.284 87.7314 136.76C88.5513 136.59 89.1143 136.337 89.2427 136.065C89.2679 136.018 89.281 135.965 89.281 135.912C89.281 135.859 89.2679 135.806 89.2427 135.759C89.2359 135.741 89.2242 135.725 89.2089 135.713C89.1935 135.701 89.1752 135.693 89.1559 135.691H89.1332Z" fill="#1C1C1C"/>
<path d="M87.4858 136.983C87.4704 136.979 87.4564 136.971 87.4451 136.96C87.4338 136.948 87.4257 136.934 87.4216 136.919C87.4216 136.877 87.142 135.899 87.448 135.366C87.4894 135.287 87.5467 135.218 87.6163 135.163C87.6859 135.107 87.7663 135.067 87.8523 135.045C88.0904 134.981 88.2 135.071 88.2491 135.158C88.4644 135.536 87.9204 136.605 87.569 136.957C87.5595 136.969 87.5465 136.978 87.5316 136.983C87.5167 136.988 87.5007 136.988 87.4858 136.983ZM87.9657 135.203C87.9356 135.199 87.9051 135.199 87.875 135.203C87.812 135.219 87.753 135.248 87.7022 135.289C87.6513 135.329 87.6098 135.38 87.5803 135.438C87.435 135.841 87.4178 136.279 87.5312 136.692C87.8637 136.269 88.2037 135.457 88.0715 135.234C88.079 135.234 88.0602 135.2 87.9808 135.203H87.9657Z" fill="#1C1C1C"/>
<path d="M84.5309 94.8008C83.3521 81.4024 80.0762 68.2724 81.1681 58.3956L94.7705 56.1285C94.7705 56.1285 96.7277 83.8206 95.2352 95.2353C93.6861 107.103 89.6545 130.945 89.6545 130.945L83.609 131.028C83.609 131.028 82.9289 107.912 84.5309 94.8008Z" fill="#263238"/>
<path d="M90.5162 129.589L90.1233 132.173L83.3485 132.294L82.9669 129.849L90.5162 129.589Z" fill="#263238"/>
<path d="M93.2138 20.7813C94.3474 21.1289 95.5829 21.4954 96.7731 21.8355C97.9633 22.1756 99.1724 22.4967 100.363 22.799C101.553 23.1013 102.747 23.3582 103.907 23.5547C104.485 23.6567 105.059 23.7285 105.611 23.7927C106.112 23.8503 106.617 23.873 107.122 23.8607L105.936 24.2915C105.84 24.3644 105.767 24.4644 105.728 24.5786C105.728 24.6315 105.758 24.5786 105.788 24.4691C105.853 24.0661 105.853 23.6554 105.788 23.2524C105.625 22.1204 105.357 21.006 104.987 19.9236C104.61 18.7674 104.175 17.5999 103.71 16.4361C103.246 15.2724 102.732 14.0897 102.24 12.9524L102.222 12.9108C102.087 12.5957 102.072 12.2425 102.178 11.9168C102.284 11.591 102.505 11.3148 102.799 11.1391C103.093 10.9635 103.441 10.9004 103.778 10.9614C104.115 11.0225 104.418 11.2036 104.632 11.4713C105.46 12.5295 106.233 13.6292 106.948 14.7661C107.677 15.9117 108.343 17.0961 108.943 18.314C109.246 18.9337 109.525 19.576 109.79 20.2448C110.068 20.9383 110.293 21.652 110.462 22.3796C110.679 23.2435 110.761 24.1355 110.708 25.0245C110.663 25.6305 110.512 26.2239 110.262 26.7777C109.941 27.4774 109.442 28.0807 108.815 28.5271C108.492 28.7552 108.119 28.9005 107.727 28.9503H107.625C106.138 29.1091 104.638 29.0964 103.155 28.9125C101.768 28.7651 100.427 28.5346 99.1082 28.2664C97.7895 27.9981 96.4973 27.6807 95.2126 27.3331C93.928 26.9855 92.6849 26.6039 91.3813 26.1429C90.747 25.8507 90.2425 25.3352 89.9642 24.6947C89.6859 24.0542 89.6531 23.3336 89.8723 22.6705C90.0915 22.0074 90.5471 21.4483 91.1523 21.0998C91.7576 20.7513 92.4699 20.638 93.1534 20.7813H93.2138Z" fill="#FF8B7B"/>
<path d="M102.898 13.8594L99.9016 11.2711L103.82 8.96631C103.82 8.96631 106.555 11.6112 105.135 13.2737L102.898 13.8594Z" fill="#FF8B7B"/>
<path d="M99.2972 8.40322L101.028 7.31503C101.24 7.17967 101.493 7.12224 101.743 7.15256C101.993 7.18288 102.225 7.29906 102.399 7.48128L103.82 8.9662L99.9018 11.271L98.9836 9.94859C98.9002 9.82737 98.842 9.69058 98.8125 9.54639C98.7831 9.40219 98.783 9.25355 98.8123 9.10932C98.8416 8.96509 98.8996 8.82823 98.9829 8.70692C99.0662 8.5856 99.1731 8.48231 99.2972 8.40322Z" fill="#FF8B7B"/>
<path d="M90.7692 19.5912C94.4343 19.0396 100.408 22.4515 100.408 22.4515L99.1006 30.5789C99.1006 30.5789 96.3235 30.3673 92.6773 28.5272C91.5702 27.9605 86.4353 20.2487 90.7692 19.5912Z" fill="#1C1C1C"/>
<path d="M91.1923 19.5496C87.1494 19.9275 80.9603 21.3633 76.8834 23.0107C75.8246 23.4334 74.9281 24.1825 74.3241 25.1494C73.72 26.1162 73.4399 27.2505 73.5244 28.3874C73.94 33.8057 77.0156 42.4545 80.9301 58.6564C82.9629 59.0758 88.7439 58.4221 93.3082 57.6022C93.8032 57.5153 94.9027 56.2117 94.9027 56.2117C94.9027 56.2117 96.108 57.0505 96.7353 56.907C99.758 56.2193 102.112 55.4334 102.611 54.7759C101.069 51.0957 99.7693 40.2932 98.5564 33.8283C98.2617 31.2628 97.4871 26.5549 96.2176 23.9515C95.0161 21.488 93.909 19.27 91.1923 19.5496Z" fill="#1C1C1C"/>
<path d="M81.2626 14.4902C81.7462 17.2598 82.1807 20.5093 80.7827 22.6139C82.0636 24.2272 84.837 25.3532 87.5385 25.8066C89.0688 23.6529 88.7023 21.7486 87.8521 20.6982C86.2161 19.7234 86.3181 18.0306 86.2841 16.8631L81.2626 14.4902Z" fill="#FF8B7B"/>
<path d="M87.5385 25.8067C87.8451 25.3157 88.0244 24.7559 88.0599 24.1782C88.0599 23.3356 89.5712 23.7739 89.5712 23.7739C89.0787 24.6142 88.3788 25.3141 87.5385 25.8067Z" fill="#263238"/>
<path d="M87.5387 25.8067C87.4311 25.5128 87.2363 25.2588 86.9804 25.0785C86.7245 24.8982 86.4197 24.8003 86.1067 24.7979C85.3683 24.7598 84.6308 24.889 83.9492 25.1757C83.9492 25.1757 86.0991 25.9616 87.5387 25.8067Z" fill="#263238"/>
<path opacity="0.2" d="M82.4606 15.5369C82.4266 15.3631 82.4001 15.1855 82.3737 15.0117L86.2843 16.8669C86.2463 17.678 86.3538 18.4893 86.6017 19.2625C84.7843 18.7297 82.7893 17.207 82.4606 15.5369Z" fill="black"/>
<path d="M85.9177 3.90297C88.1848 3.52513 89.7679 6.17003 87.8069 9.91445C86.4618 9.27212 85.3472 7.11464 85.3472 7.11464L85.9177 3.90297Z" fill="#E0E0E0"/>
<path d="M79.0487 10.9575C80.6055 14.3279 81.346 16.3833 83.7793 17.4602C87.4406 19.0811 91.0792 15.7939 90.5578 12.0155C90.0855 8.61488 87.6182 3.6727 83.7075 3.65003C82.8415 3.64393 81.9881 3.85778 81.2273 4.27153C80.4665 4.68528 79.8232 5.28539 79.3577 6.01564C78.8921 6.74588 78.6195 7.58237 78.5655 8.44671C78.5115 9.31105 78.6777 10.175 79.0487 10.9575Z" fill="#FF8B7B"/>
<path d="M89.2806 12.7219C89.2806 12.7219 88.1206 12.7219 85.079 13.4172C85.7024 14.2597 86.5904 14.8605 88.1395 14.4864C88.3374 14.4598 88.5271 14.3906 88.6958 14.2837C88.8644 14.1767 89.0078 14.0345 89.1162 13.8669C89.2247 13.6992 89.2955 13.51 89.3239 13.3124C89.3522 13.1148 89.3375 12.9133 89.2806 12.7219Z" fill="#263238"/>
<path d="M87.2062 13.9273C87.8067 13.7545 88.4463 13.7743 89.0349 13.9839C88.8017 14.2458 88.488 14.4226 88.1432 14.4865C87.5442 14.6612 86.9052 14.6414 86.3182 14.4298C86.549 14.1668 86.8619 13.9897 87.2062 13.9273Z" fill="#FF5652"/>
<path d="M89.1332 12.7257C89.1378 12.8435 89.1076 12.96 89.0465 13.0608C88.9854 13.1616 88.8959 13.2422 88.7894 13.2925C87.8813 13.4981 86.9572 13.6246 86.0273 13.6703C85.8776 13.691 85.7251 13.6749 85.5829 13.6236C85.4407 13.5722 85.3132 13.4871 85.2112 13.3756C86.4996 13.057 87.8109 12.8397 89.1332 12.7257Z" fill="white"/>
<path opacity="0.2" d="M84.8408 12.9071C84.8408 12.9071 83.9793 13.0242 84.2892 13.6628C84.3156 13.3492 84.8408 12.9071 84.8408 12.9071Z" fill="black"/>
<path d="M80.9946 13.2245L82.5324 12.9411C82.5324 12.9411 81.4707 9.96367 80.1935 9.16264C80.9492 8.43341 82.0828 6.95226 82.4379 5.92453C82.7504 5.08083 82.8048 4.16326 82.5942 3.28856C82.3836 2.41387 81.9175 1.6216 81.2553 1.01257C81.1078 1.79099 80.7897 2.52707 80.3239 3.16795C79.8581 3.80883 79.2561 4.33861 78.5613 4.71921C77.0763 5.52402 75.4932 7.5417 77.3597 8.33895C75.3496 9.54426 76.366 12.0909 80.9946 13.2245Z" fill="#E0E0E0"/>
<path d="M81.9467 6.75961C84.9694 6.83518 87.0589 3.73687 84.4405 0C84.1042 2.11592 81.1835 3.40059 81.1835 3.40059L81.9467 6.75961Z" fill="#E0E0E0"/>
<path d="M84.6218 5.5429C86.5676 6.01143 88.1017 3.80482 86.6432 0.445801C86.2956 2.10453 84.3384 2.71286 84.3384 2.71286L84.6218 5.5429Z" fill="#E0E0E0"/>
<path opacity="0.2" d="M83.594 10.2018C83.0631 10.1151 82.5194 10.2429 82.0826 10.557C82.6046 10.537 83.1178 10.4164 83.594 10.2018Z" fill="black"/>
<path opacity="0.2" d="M83.6545 10.5494C83.4122 10.5616 83.1755 10.6264 82.9609 10.7392C82.7462 10.8521 82.5587 11.0104 82.4114 11.2031C82.8676 11.0762 83.2914 10.8534 83.6545 10.5494Z" fill="black"/>
<path opacity="0.2" d="M88.4191 8.31253C88.4191 8.31253 88.6987 7.7911 89.0198 7.85534C88.8672 8.06181 88.6588 8.22042 88.4191 8.31253Z" fill="black"/>
<path opacity="0.2" d="M88.4869 8.55819C88.4869 8.55819 88.7854 8.18034 89.0688 8.41461C88.9013 8.53707 88.6922 8.58865 88.4869 8.55819Z" fill="black"/>
<path d="M78.7273 14.0256C78.9855 14.4059 79.3164 14.7312 79.701 14.9828C80.0856 15.2344 80.5162 15.4074 80.9679 15.4917C82.1846 15.7146 82.6947 14.6 82.2715 13.508C81.8937 12.5256 80.7979 11.2409 79.6266 11.4979C78.4553 11.7548 78.0963 13.0735 78.7273 14.0256Z" fill="#FF8B7B"/>
<path d="M84.1569 10.2018C84.2665 10.4814 84.5045 10.6515 84.6897 10.5797C84.8748 10.5079 84.9315 10.2018 84.8219 9.93736C84.7123 9.67287 84.4743 9.48772 84.2892 9.55951C84.104 9.6313 84.0473 9.91468 84.1569 10.2018Z" fill="#263238"/>
<path d="M87.6594 8.80365C87.769 9.08326 88.0071 9.25329 88.1922 9.1815C88.3774 9.10971 88.434 8.80365 88.3245 8.53916C88.2149 8.27467 87.9768 8.08953 87.7955 8.16132C87.6141 8.23311 87.5499 8.52027 87.6594 8.80365Z" fill="#263238"/>
<path d="M86.5035 9.27612C86.5035 9.27612 87.826 10.5948 88.8499 11.0595C88.5628 11.7321 87.6408 11.8946 87.6408 11.8946L86.5035 9.27612Z" fill="#FF5652"/>
<path d="M82.7516 8.81137C82.7221 8.8209 82.6904 8.8209 82.6609 8.81137C82.6383 8.8053 82.6172 8.79475 82.5988 8.78033C82.5804 8.76592 82.5651 8.74795 82.5539 8.72749C82.5426 8.70704 82.5355 8.68451 82.5331 8.66127C82.5307 8.63803 82.5331 8.61455 82.54 8.59222C82.6094 8.31825 82.7434 8.06486 82.9307 7.85321C83.1181 7.64156 83.3533 7.47779 83.6168 7.37557C83.6387 7.36853 83.6617 7.36589 83.6845 7.36778C83.7074 7.36968 83.7296 7.37608 83.75 7.38662C83.7704 7.39715 83.7885 7.41162 83.8032 7.42918C83.818 7.44674 83.8291 7.46704 83.836 7.48892C83.8503 7.53352 83.8464 7.58197 83.8252 7.62372C83.804 7.66548 83.7671 7.69715 83.7226 7.71185C83.5153 7.79758 83.3311 7.93081 83.1848 8.10079C83.0384 8.27077 82.934 8.47275 82.88 8.69046C82.8704 8.71971 82.8536 8.74609 82.8311 8.7672C82.8087 8.78832 82.7813 8.8035 82.7516 8.81137Z" fill="#263238"/>
<path d="M88.1886 6.67267C88.1622 6.68567 88.1331 6.69244 88.1036 6.69244C88.0741 6.69244 88.045 6.68567 88.0186 6.67267C87.8266 6.55996 87.6102 6.49526 87.3879 6.48408C87.1656 6.47289 86.9438 6.51556 86.7415 6.60844C86.7003 6.63001 86.6523 6.63457 86.6078 6.62115C86.5633 6.60772 86.5258 6.57739 86.5034 6.53665C86.4817 6.4949 86.477 6.44634 86.4904 6.40121C86.5038 6.35609 86.5342 6.31794 86.5752 6.29483C86.8295 6.17483 87.1089 6.11801 87.3898 6.12919C87.6707 6.14037 87.9447 6.21923 88.1886 6.35906C88.2092 6.36977 88.2273 6.38449 88.2421 6.40233C88.2569 6.42017 88.2679 6.44079 88.2746 6.46297C88.2813 6.48514 88.2835 6.50843 88.2811 6.53147C88.2786 6.5545 88.2716 6.57682 88.2604 6.5971C88.2426 6.62744 88.218 6.65329 88.1886 6.67267Z" fill="#263238"/>
<path d="M78.6406 28.8899C78.2326 30.0726 77.7792 31.2666 77.356 32.4568L76.0486 36.0198L74.7451 39.5753C74.3257 40.7618 73.8949 41.9406 73.4906 43.1157L73.4718 41.6043C73.8661 42.8743 74.3601 44.1112 74.9491 45.3034C75.5537 46.5805 76.2036 47.8728 76.8837 49.1574C77.5638 50.4421 78.2552 51.7305 78.9543 53.019L81.0626 56.8956C81.2322 57.2014 81.2825 57.5591 81.2037 57.8997C81.1249 58.2403 80.9226 58.5396 80.636 58.7398C80.3494 58.9399 79.9987 59.0268 79.6518 58.9834C79.3049 58.9401 78.9864 58.7698 78.7578 58.5053C77.7565 57.3717 76.8232 56.2042 75.9013 55.0178C74.9793 53.8313 74.0914 52.6185 73.2262 51.3829C72.3609 50.1474 71.5259 48.874 70.7437 47.5403C69.8905 46.1556 69.1706 44.6931 68.5938 43.1724C68.4413 42.7517 68.4189 42.2949 68.5296 41.8613L68.5787 41.6724C68.8999 40.399 69.2324 39.1408 69.6026 37.8939C69.9729 36.647 70.3583 35.4115 70.7362 34.1835C71.114 32.9555 71.5448 31.7313 71.9755 30.5184C72.4062 29.3056 72.8408 28.0965 73.3282 26.8874C73.5907 26.1819 74.1228 25.6096 74.8073 25.2964C75.4918 24.9832 76.2727 24.9547 76.9781 25.2173C77.6836 25.4799 78.2559 26.0119 78.5691 26.6964C78.8823 27.3809 78.9107 28.1618 78.6482 28.8673L78.6406 28.8899Z" fill="#FF8B7B"/>
<path d="M76.6644 23.1089C72.6026 24.5598 70.3809 32.4945 70.3809 32.4945L76.8533 38.2604C76.8533 38.2604 79.5209 36.3485 80.065 32.298C80.4806 29.1733 80.7904 21.6202 76.6644 23.1089Z" fill="#1C1C1C"/>
<path d="M79.8194 55.1122L83.152 56.9145L79.9592 60.1488C79.9592 60.1488 77.1367 58.15 77.9566 56.48L79.8194 55.1122Z" fill="#FF8B7B"/>
<path d="M84.3082 60.6779L82.9971 61.6225C82.7441 61.8046 82.4346 61.8909 82.1239 61.866C81.8131 61.8411 81.5213 61.7065 81.3006 61.4864L79.9592 60.1489L83.152 56.9146L84.5916 58.8227C84.6964 58.9625 84.7722 59.1218 84.8147 59.2913C84.8572 59.4607 84.8656 59.637 84.8392 59.8097C84.8128 59.9824 84.7522 60.1482 84.6611 60.2972C84.5699 60.4463 84.4499 60.5757 84.3082 60.6779Z" fill="#FF8B7B"/>
<path d="M81.3609 20.9817C81.5347 21.8243 82.3055 24.6392 86.1066 24.7979C84.7955 25.2249 84.4856 27.7224 84.4856 27.7224C84.4856 27.7224 80.575 25.2589 80.1934 22.1757C80.3067 21.3633 81.3609 20.9817 81.3609 20.9817Z" fill="white"/>
<path d="M86.7905 19.508C86.9606 20.3317 88.2414 21.7109 88.0601 24.1782C89.3787 23.7739 91.045 24.8885 91.045 24.8885C90.6561 22.9938 89.7391 21.2477 88.4001 19.8519C87.8951 19.6212 87.3457 19.5038 86.7905 19.508Z" fill="white"/>
</svg>
